<svg xmlns="http://www.w3.org/2000/svg" viewBox="0 0 84.95 85.35"><defs><style>.cls-1{fill:#fefefe;}.cls-1,.cls-2,.cls-3,.cls-4,.cls-5{fill-rule:evenodd;}.cls-2{fill:#6dcef5;}.cls-3{fill:#99c93c;}.cls-4{fill:#006944;}.cls-5{fill:#dc3631;}</style></defs><title>Asset 1</title><g id="Layer_2" data-name="Layer 2"><g id="Layer_1-2" data-name="Layer 1"><g id="icon"><path id="Fill-44" class="cls-1" d="M85,43.11A42.48,42.48,0,1,1,42.48.88,42.35,42.35,0,0,1,85,43.11"/><path id="Fill-46" class="cls-2" d="M3.64,47.41c3.75-1,7.44-.58,12.06,0,5,.68,10.14,1.37,14.49.17,6-1.64,9.34-5.51,12.88-9.61,4.1-4.73,8.74-10.1,18.25-12.72,5.8-1.6,12.31-.45,17.08,1.72,0,0,1.24.62,1.23.64.93.54,2,1.26,3,1.94A42.41,42.41,0,0,0,.38,48.85a13.38,13.38,0,0,1,3.26-1.44"/><path id="Fill-47" class="cls-1" d="M51,38.6a11.12,11.12,0,1,0,21.3-6.32A11.12,11.12,0,1,0,51,38.6"/><path id="Fill-48" class="cls-1" d="M44.25,24.64C38,26.79,34.6,33.21,36.62,39s8.69,8.73,14.91,6.58S61.18,37,59.17,31.23s-8.7-8.73-14.92-6.59"/><path id="Fill-49" class="cls-1" d="M28.66,48.44c1.27,5,5.63,8.15,9.74,7.11s6.41-5.91,5.14-10.87-5.63-8.16-9.74-7.12-6.41,5.91-5.14,10.88"/><path id="Fill-50" class="cls-1" d="M19.48,52.14c.15,3.07,3.16,5.43,6.72,5.26s6.33-2.79,6.18-5.86-3.15-5.44-6.71-5.27-6.33,2.79-6.19,5.87"/><path id="Fill-51" class="cls-1" d="M9.74,62c7.86-.36,14-5.19,13.74-10.78a7.35,7.35,0,0,0-.69-2.78c-1.91-4.15-7.51-7-14-6.69A18.13,18.13,0,0,0,0,44.35a43.27,43.27,0,0,0,4,17A19.06,19.06,0,0,0,9.74,62"/><path id="Fill-52" class="cls-3" d="M82.56,31c-3.49-3.35-13-6.63-21.26-4-9,2.9-13.07,8.07-17,13.05-3.46,4.39-6.74,8.53-13,10.55-4.53,1.46-9.83,1-14.95.51-7.15-.64-12.33.19-15,2.37C5.75,72.34,24.09,86,44.65,85.06,67.81,84,84.78,62,84.78,42.49A34.64,34.64,0,0,0,82.56,31"/><path id="Fill-53" class="cls-4" d="M17.5,67.39c.28-.29.81-.11.92-.54,1.25-.14,2.14.64,3.17,1a.68.68,0,0,0,.25-1,5.42,5.42,0,0,0-4.09-2.72c-.43.17-1,.49-1.11,1A2,2,0,0,0,17.5,67.39Zm25.63-4.11a2.46,2.46,0,0,0-1.29,2.3c.33.25.54.71.93.78,1.78.39,2.74-1.88,4.7-1,.64-.11.75-.84.61-1.34A4,4,0,0,0,43.13,63.28ZM31.84,59.74c.29-.67-.43-1.1-.67-1.63a4.85,4.85,0,0,0-2.75,0A2,2,0,0,0,27,59.88c.24.25.46.57.85.43C29,59,30.71,60.76,31.84,59.74Zm-6.4,2a2.54,2.54,0,0,0-2.46.17c-.54.53-.43,1.31-.43,2.06a1.49,1.49,0,0,0,.86.67,2.08,2.08,0,0,1,2-1.09c.78.1,1.71,1.23,2.31.31A4.54,4.54,0,0,0,25.44,61.76Zm-8.19-1.17c1.17-1.52,2.17,1,3.59.42l.08-.52a5.58,5.58,0,0,0-1.71-1.71,2.45,2.45,0,0,0-2.32,0,1.49,1.49,0,0,0-.25,1.53A.63.63,0,0,0,17.25,60.59Zm12.56,7.72c1.11.74,1-1,1.85-1.28a4.45,4.45,0,0,1,3.18.25c.24,0,.63-.07.53-.43l-.29-.67C33.77,65.08,32,64,30.31,64.84A2.15,2.15,0,0,0,29,66.61C29,67.31,29,68.09,29.81,68.31ZM81.56,53.37a3.94,3.94,0,0,1-1.7,1.43A6.79,6.79,0,0,0,81.58,51,3.26,3.26,0,0,1,81.56,53.37Zm-2.13-4.91a2.37,2.37,0,0,1-2,1.26c1.26-.41,1.75-1.85,1.59-4.06A4,4,0,0,1,79.43,48.46Zm-.25-5.69a2.47,2.47,0,0,0,1.26-1.35,3.93,3.93,0,0,0-.08-2.24c.47.82,1.08,1.57.71,2.55-.17.86-1.5.94-1.89,1l-.1,0S79.13,42.79,79.18,42.77ZM76.26,59.19a2.34,2.34,0,0,1-2.11,1c1.3-.23,2-1.59,2.14-3.81A4,4,0,0,1,76.26,59.19ZM74.69,66a3.79,3.79,0,0,1-2.09.77,6.87,6.87,0,0,0,2.93-3A3.27,3.27,0,0,1,74.69,66ZM72.28,55.12c.32-.84,1.58-.93,2.13-1.95.38-.58.58-1.75,1-2.21.67,1,.18,2.09-.31,3A5.83,5.83,0,0,1,72.28,55.12Zm-1.59,6.7a5.75,5.75,0,0,1-2.9,1C68.15,62,69.41,62,70,61c.41-.55.68-1.71,1.15-2.15C71.78,59.9,71.23,61,70.69,61.82Zm-3,7.92c-1,1.13-2.28.75-3,.78,1.73-.93,3.44-2.31,3.72-3.72A3,3,0,0,1,67.68,69.74Zm-4.46-6.57a5.75,5.75,0,0,1-3,.58c.49-.75,1.74-.58,2.49-1.46.5-.49.94-1.6,1.47-1.95C64.6,61.45,63.88,62.42,63.22,63.17Zm-3.11,7.92-1.71-.25c2.05-.31,2.92-1.3,3.94-3A3.65,3.65,0,0,1,60.11,71.09Zm.51,5.71a4,4,0,0,1-2.21.27A6.85,6.85,0,0,0,62,74.81,3.28,3.28,0,0,1,60.62,76.8Zm8-21.66c.35.42.07,1-.07,1.45a2,2,0,0,1-2.38,1c-.22-.18-.54-.22-.54-.53C66.91,57.16,67.87,56.13,68.58,55.14ZM54.25,75.61A3.88,3.88,0,0,1,52,75.48a6.87,6.87,0,0,0,3.9-1.57S55.32,75.31,54.25,75.61Zm-3.79-6.88a5.26,5.26,0,0,0,5.09-2.23,3.36,3.36,0,0,1-1.88,2.83,2.81,2.81,0,0,1-2.62-.1C50.94,69.08,50.39,69,50.46,68.73ZM48.66,81a4,4,0,0,1-2.17-.49,6.89,6.89,0,0,0,4.1-.93A3.31,3.31,0,0,1,48.66,81Zm-4.74-2.81A3.68,3.68,0,0,1,40.7,76.6c0-.06,0-.11,0-.15a4.75,4.75,0,0,0,5.39-.17C46.14,76.7,45.26,78.05,43.92,78.18Zm-6.7-6.72v-.18c1.75.36,3.7.21,4.87-1.21.25.07.61.22.61.54.07.67-.61,1.31-1.21,1.52A4.7,4.7,0,0,1,37.22,71.46Zm-1.67,9.27c-1.07-.18-1.94-1.65-1.94-1.65,1.31,1.21,3.82.91,4.89.77A4.59,4.59,0,0,1,35.55,80.73Zm-2.75-5.8c1.39.1,3,.6,4.16-.43l.54-.67a1.31,1.31,0,0,1,.25,1.63c-1.06,1.1-2.56.74-3.84.32C33.52,75.49,33.09,75.35,32.8,74.93ZM49.68,72.2c.18.39-.44,1.87-1.74,2.25a3.7,3.7,0,0,1-3.46-1c0-.07,0-.1-.07-.14A4.73,4.73,0,0,0,49.68,72.2ZM32.22,77.67c-.44.46-1.59.46-2.6.18-.25-.22-1.32-.82-1.57-1.06.93.17,3.65,1,3.74-.59A2,2,0,0,1,32.22,77.67ZM26.4,72a3.19,3.19,0,0,1-2.14-.19c-.36-.36-1-1.29-.81-1.79a3.68,3.68,0,0,0,2.15,1,4.31,4.31,0,0,0,2.63-1C28.3,70.88,27.07,71.81,26.4,72Zm-1.55,3.42a6.58,6.58,0,0,1-3.28-1.63c1.07.28,4.17,1.45,5.22.16C27.59,74.71,25.79,75.46,24.85,75.44Zm-4.08,2.23v-.18c2.49,1,3.1-.67,3.1-.67.39.25.48,1.43.59,1.89C24,79.28,21.72,78.48,20.77,77.67Zm-2.49-5.12c-1.32-.14-2-1.27-2.74-2.19l.18-.35a4.37,4.37,0,0,1,3.13,1.63A.72.72,0,0,1,18.28,72.55Zm-2.76,1.32-.25-.54c.53.32,2.54,1.29,2.76,2.07C17.6,75.61,15.91,74.18,15.52,73.87Zm-3.65-3.51c.07-.29,2.08,1.24,2,1.77C13.64,72.16,11.47,71.05,11.87,70.36Zm-3.28-4.6a7.2,7.2,0,0,1-1.95-2.91l.18-.42c1.14.67,2.46,1.38,2.38,2.9C9,65.47,9,65.9,8.59,65.76Zm74.52-34.5a25.93,25.93,0,0,0-3.89-2.48c0,.15-.1.3-.14.45-.42-.07-.85-.64-1.28-.18-.75,1.06-1.38,2.62-.75,3.82,1.57,1.49,1-1.34,2-1.7.17-.1.35-.53.6-.25a4.29,4.29,0,0,1,.25,4.32c-.15.35-.43.11-.61,0a3.89,3.89,0,0,0-1.6-1.59c-.55.7,0,1.61-.21,2.46a1.34,1.34,0,0,1-.07.27c-.47,1-1.64,2.09-1.18,3.22.22,1.24.43,2.9-.54,3.89-.85-.1-1.35.75-1.85,1.27-.64-.88-1.67-1.77-2.74-1.27a4.13,4.13,0,0,0-2.31,3.4c.07,1,0,1.91.79,2.55,2-.25.77-3.15,3-3.4.43-.18,1.18-.43,1.21.35a3.76,3.76,0,0,1,.08,3,2.77,2.77,0,0,1-2.14,1.28c0-.15-.11-.19-.18-.26a3.15,3.15,0,0,0-2.81,2c-.46-.17-.71-.81-1.11-1.1-.56-.35-1.28-.07-1.88,0a4.15,4.15,0,0,0-1.69,1.87c-.85,1.68-1.11,3.72-3.37,4.44-.78.21-1.74.42-2.13,1.34s-.25,2.19-1,3c-1.74,2.24-4.73.68-6.76,2.24-2.14,1-2.17,3.43-4.35,4.14a4,4,0,0,1-3.7-.43c-1-.53-1.24-1.59-2-2.26a5.52,5.52,0,0,1-2.39,1.7c-1.25.63-2.07-1.67-2.63-.11a3.63,3.63,0,0,1-.43,2.23c-.75.95-2.07.74-3.1.74a3.59,3.59,0,0,1-2-1c-2.17-.68-4.7-2.52-7-.85-.64.21-1.21-.85-1.64,0a2.34,2.34,0,0,1-.6,1.56c-1,.81-2.07-.5-3.07-.86a17,17,0,0,0-2.13-2,3.34,3.34,0,0,0-2-.07c-1.25.46.68,1.45-.68,1.7-.57.6-1.28,0-1.7-.42a2.71,2.71,0,0,1-1-2.48,4.22,4.22,0,0,1,2.39,1.38,1,1,0,0,0,.42-.36c-.74-1.45-2-3.26-3.66-3.82-.22,0-.25.35-.5.25-.39-.6-1.24-.78-1.28-1.7C6.75,60.87,6.6,58.82,5,59.21a.34.34,0,0,0-.1.29c-.26-.58-.5-1.17-.73-1.76a3.82,3.82,0,0,0-.8-2.67l-.17-.15q-.33-1.11-.6-2.25a6.06,6.06,0,0,0-1.34.86A42.45,42.45,0,0,0,84.83,43.17,41.88,41.88,0,0,0,83.11,31.26ZM5.11,56c.25.14.6.42.85.07A3.35,3.35,0,0,0,3.65,53C3.65,54.11,4.54,55,5.11,56Zm10.07,1.76V57.5c-.75-.84-1.28-2.65-2.81-2.36-.25.28-.61.49-.5.92s.6,0,.93,0c.57.28.68.85,1,1.27S14.68,58,15.18,57.75Zm-8.36-.49a1.29,1.29,0,0,0,.07,1.21C8.06,58.39,8.42,59.7,9,60.41a.51.51,0,0,0,.86-.1A5.76,5.76,0,0,0,8.71,57.5C8.17,57.19,7.39,56.7,6.82,57.26ZM12,60.73c-.78.25-.89,1.1-.92,1.81,0,.24.32.67.67.49,1.39-1.38,1.5,1.24,2.92.78a3.36,3.36,0,0,0-.85-2.55A3.8,3.8,0,0,0,12,60.73Zm24.46,2.48c1-1.49,2.74-.39,4.1-.6v-.32a3.82,3.82,0,0,0-2.07-1.8,3.27,3.27,0,0,0-3.06.52,2,2,0,0,0-.93,2.13c.08.43.08,1.24.68,1.16C35.94,64.38,36.08,63.67,36.47,63.21ZM73.81,30.68a3.53,3.53,0,0,0-1,3.57c.22.53.5,1.34,1.28,1.28.18-.22.39-.36.43-.61-.71-1.59,1.21-2.3,1.29-3.64A1.31,1.31,0,0,0,73.81,30.68ZM55.59,50.39a2.66,2.66,0,0,0-1.61-.7,3.85,3.85,0,0,0-3.09,2.12A3.32,3.32,0,0,0,51,54.29c.57.49.85-.18,1.28-.5C51.49,51,55,51.91,55.59,50.39ZM75.66,38a1.4,1.4,0,0,0-2-1A3.38,3.38,0,0,0,72,39.6c.11.92,0,2.16,1.11,2.44.53,0,.42-.78.42-1.28C73.6,39.21,76.09,39.81,75.66,38ZM54.73,60c.89-.45,2-.42,2.74-1a1.55,1.55,0,0,0-.32-1.52c-1.1-1.07-3.09-.78-4.19.06-.79,1.18-1.89,2.56-1.22,4C53.1,62.33,53.77,60.55,54.73,60ZM64.65,39.7a2.57,2.57,0,0,0-1.72-.34,3.84,3.84,0,0,0-2.56,2.74A3.3,3.3,0,0,0,61,44.49c.67.37.8-.35,1.14-.76C60.8,41.21,64.39,41.31,64.65,39.7ZM63.39,50c1.77.32.39-2.09,1.53-2.73.6-.92,2-1.31,2.2-2.37a2.16,2.16,0,0,0-2.2-.67,4.45,4.45,0,0,0-2.5,3.58C62.64,48.62,62.68,49.47,63.39,50Zm4.16-9.28c.64-1.34,2.45-.95,2.85-2.37a2.63,2.63,0,0,0-3.77.86A3.32,3.32,0,0,0,66,42a1,1,0,0,0,1.21.67A12.53,12.53,0,0,1,67.55,40.76Zm1.14-9.66c-1.1.85-2.21,1.95-1.81,3.4.14.46.67.85,1.1.67-.43-1.63,1.49-2.37,1.71-3.64ZM49.36,57.19A1.07,1.07,0,0,0,50,56c-.92-1.35-2.77-.71-4-.25a3.25,3.25,0,0,0-1.46,3.15c.21.1.32.46.61.32C46.26,58.11,47.47,56.73,49.36,57.19Zm9.57-2.3c.61-1.77,2.71-1.6,3.49-2.9,0-.22-.32-.29-.32-.5-.57-.81-1.82-.57-2.49-.18-1.78.64-2,2.48-2.21,4.08a.93.93,0,0,0,.93.53A1.9,1.9,0,0,0,58.93,54.89Z"/><polygon id="Fill-54" class="cls-1" points="67.04 25.67 64.43 25.67 64.87 4.02 65.82 4.02 67.04 25.67"/><path id="Fill-56" class="cls-5" d="M64.88,1.85,64.8,7.3C66.34,6,69,4.46,70.37,4.82a.51.51,0,0,1,.18.09L70.16.36c-.89-.87-3.08-.09-5.28,1.49"/><path id="Fill-57" class="cls-5" d="M70.55,5.69c-.15-.25-.69-.21-1.43.14l.1,1.53a2.51,2.51,0,0,1,1-.92c.41-.25.56-.45.38-.75"/><path id="Fill-58" class="cls-5" d="M74.12,1.73a12.11,12.11,0,0,1-3.18.45l.38,4h0c0,.11-.06.48-.67.74-.42.19-.71.58-.35.79a1,1,0,0,0,.48.12,8.07,8.07,0,0,0,3.34-.44Z"/><path id="Fill-59" class="cls-4" d="M3.1,17.4A19.57,19.57,0,0,0,5.53,18c-1.24,0-2.35,0-2.43.06a2.23,2.23,0,0,0,.89.36,16,16,0,0,0,1.74.16,7.24,7.24,0,0,0,2.42,2.24c.73.47,3.79,1.54,5.7,2.37,1.54.66,1.49,1.51,1.26,2.31a6.56,6.56,0,0,1,2.45-.6,30.28,30.28,0,0,0,5.53.38,10.68,10.68,0,0,0,3.46-.66c.42.17.87.34,1.2.44a1.37,1.37,0,0,0,.62,0c0-.06-.73-.34-1.47-.72h0a14.39,14.39,0,0,0,1.68.4,1.49,1.49,0,0,0,.62,0c-.05-.06-.88-.28-1.73-.58l-.16-.06h0c.55.11,1.1.21,1.53.26a2.49,2.49,0,0,0,1-.11,20.06,20.06,0,0,0-2-.56h0c.51.06,1,.09,1.39.1a2.42,2.42,0,0,0,1-.2,11.24,11.24,0,0,0-1.6-.31c.33,0,.63,0,.89,0a2.4,2.4,0,0,0,1-.31,10.83,10.83,0,0,0-1.38-.12h0l.54-.14a1.87,1.87,0,0,0,.76-.41c-.09,0-1.24.25-2.51.39l-.82.08-.95,0a6.46,6.46,0,0,1-4.53,1.51c-2.75,0-4.84,0-5.93.63,0,0,.69-.79-1.25-1.86-3-1.64-6-4.14-5.62-5.52-.39-.27-2.13-1.71-2.61-2.14-.83-.84-1.51-1.63-1.61-1.65a1.9,1.9,0,0,0,.34.81,10.43,10.43,0,0,0,.88,1.15h0l-.09,0C4.63,15,3.61,14.4,3.5,14.4a2,2,0,0,0,.56.67,18.75,18.75,0,0,0,1.71,1.14,0,0,0,0,1,0,0L5.07,16c-1.18-.51-2.25-1.07-2.36-1.06a2.07,2.07,0,0,0,.61.62,22.81,22.81,0,0,0,2.19,1.24l-.72-.19c-1.26-.34-2.42-.76-2.52-.73a2,2,0,0,0,.69.54,24.88,24.88,0,0,0,2.61,1h0L5,17.31c-1.33-.17-2.57-.45-2.67-.4a2,2,0,0,0,.8.49"/><path id="Fill-60" class="cls-1" d="M21.67,24.25c-2.75,0-4.92.09-6,.69,0,0,.76-.85-1.18-1.92-3-1.64-6-4.13-5.62-5.52.63.44,1.29.87,2,1.29,1.09.66,5.29,3,5.73,3.12.19.06,1.17-.68,1.37-.81a1.41,1.41,0,0,1,2.32.76,1,1,0,0,0-.67.2,1.73,1.73,0,0,0-.56.54s2.78.13,3.71.15c.75,0,2.17,0,3.47,0a6.46,6.46,0,0,1-4.53,1.51"/><path id="Fill-61" class="cls-4" d="M15.33,25.25s-.92,0-1.06.39c.39.19,1.06-.39,1.06-.39"/><path id="Fill-62" class="cls-4" d="M15.32,25.27s-.36.84,0,1.12c.33-.28,0-1.12,0-1.12"/><path id="Fill-63" class="cls-4" d="M15.34,25.23s-.88.56-.74,1c.48-.07.74-1,.74-1"/></g></g></g></svg>